<?xml version="1.0" standalone="no"?><!DOCTYPE svg PUBLIC "-//W3C//DTD SVG 1.1//EN" "http://www.w3.org/Graphics/SVG/1.1/DTD/svg11.dtd"><svg t="1729859801303" class="icon" viewBox="0 0 1024 1024" version="1.1" xmlns="http://www.w3.org/2000/svg" p-id="3553" xmlns:xlink="http://www.w3.org/1999/xlink" width="200" height="200"><path d="M960.234209 457.653231c-34.884508-157.727301-221.189681-278.111089-445.775716-278.111089-249.449305 0-451.640284 148.503219-451.640284 331.671958 0 172.454724 179.149193 314.134537 408.237775 330.179978 23.086811 1.616824 43.541679-14.174837 46.589085-36.013215 7.755638-55.524594 34.259268-160.081928 124.898615-225.509057 90.796936-65.517179 208.215182-73.598228 273.712919-72.121598C944.445618 508.396939 966.029192 483.878522 960.234209 457.653231zM277.13025 641.650849c-51.183729 0-92.692099-39.525202-92.692099-88.236624s41.508369-88.236624 92.692099-88.236624c51.206242 0 92.714611 39.525202 92.714611 88.236624S328.336492 641.650849 277.13025 641.650849zM465.05327 423.437965c-37.585013 0-68.057025-28.996404-68.057025-64.780399s30.473035-64.781422 68.057025-64.781422c37.607526 0 68.083631 28.997428 68.083631 64.781422S502.661819 423.437965 465.05327 423.437965zM725.445812 401.644613c-24.932856 0-45.133943-19.253506-45.133943-42.987047 0-23.731494 20.201088-42.939975 45.133943-42.939975 24.933879 0 45.133943 19.208481 45.133943 42.939975C770.579755 382.391107 750.379691 401.644613 725.445812 401.644613z" p-id="3554" fill="#B3B3B3"></path></svg>