<?xml version="1.0" standalone="no"?><!DOCTYPE svg PUBLIC "-//W3C//DTD SVG 1.1//EN" "http://www.w3.org/Graphics/SVG/1.1/DTD/svg11.dtd"><svg t="1728825358178" class="icon" viewBox="0 0 1024 1024" version="1.1" xmlns="http://www.w3.org/2000/svg" p-id="31166" xmlns:xlink="http://www.w3.org/1999/xlink" width="200" height="200"><path d="M766.4 744.32c43.712 0 79.36-36.224 79.36-80.512 0-53.504-79.36-140.8-79.36-140.8s-79.36 87.296-79.36 140.8c0 44.288 35.648 80.512 79.36 80.512z m-377.088-44.16c7.04 7.168 18.56 7.168 25.6 0l256.064-256c7.104-7.04 7.104-18.56 0-25.6l-256-256a16.32 16.32 0 0 0-1.92-1.664L334.72 82.688a9.088 9.088 0 0 0-12.8 0l-48 48a9.088 9.088 0 0 0 0 12.8l67.2 67.2-207.808 207.936c-7.04 7.04-7.04 18.56 0 25.6l255.936 256z m12.864-448.576L581.12 430.528H223.36L402.24 251.52z m501.824 564.416H120a8 8 0 0 0-8 8v80c0 4.416 3.584 8 8 8h784a8 8 0 0 0 8-8v-80a8 8 0 0 0-8-8z" fill="#B3B3B3" p-id="31167"></path></svg>