<?xml version="1.0" standalone="no"?><!DOCTYPE svg PUBLIC "-//W3C//DTD SVG 1.1//EN" "http://www.w3.org/Graphics/SVG/1.1/DTD/svg11.dtd"><svg t="1729911612900" class="icon" viewBox="0 0 1024 1024" version="1.1" xmlns="http://www.w3.org/2000/svg" p-id="7635" xmlns:xlink="http://www.w3.org/1999/xlink" width="200" height="200"><path d="M690.773333 85.333333H333.226667C177.92 85.333333 85.333333 177.92 85.333333 333.226667v357.12C85.333333 846.08 177.92 938.666667 333.226667 938.666667h357.12c155.306667 0 247.893333-92.586667 247.893333-247.893334V333.226667C938.666667 177.92 846.08 85.333333 690.773333 85.333333zM224 507.306667c1.28-75.093333 31.146667-145.92 84.053333-198.826667A286.634667 286.634667 0 0 1 512 224c76.8 0 149.333333 29.866667 203.52 84.48 1.28 1.28 2.56 2.986667 3.84 4.693333v-36.693333c0-17.493333 14.506667-32 32-32s32 14.506667 32 32v113.066667c0 17.493333-14.506667 32-32 32h-113.066667c-17.493333 0-32-14.506667-32-32s14.506667-32 32-32h35.413334c-1.28-1.28-2.133333-2.56-3.413334-3.84A222.72 222.72 0 0 0 512 288c-59.733333 0-116.053333 23.466667-158.293333 65.706667-41.386667 41.386667-64.426667 96.426667-65.28 154.88a32.426667 32.426667 0 0 1-32.426667 31.146666h-0.426667c-17.493333 0-31.573333-14.933333-31.573333-32.426666z m491.52 208.213333A286.677333 286.677333 0 0 1 512 800c-76.8 0-149.333333-29.866667-203.52-84.48-1.28-1.28-2.56-2.986667-3.84-4.693333v36.266666c0 17.493333-14.506667 32-32 32s-32-14.506667-32-32v-113.066666c0-17.493333 14.506667-32 32-32h113.066667c17.493333 0 32 14.506667 32 32s-14.506667 32-32 32h-35.413334c1.28 1.28 2.133333 2.56 3.413334 3.84A222.72 222.72 0 0 0 512 735.573333c59.733333 0 116.053333-23.466667 158.293333-65.706666 41.813333-41.813333 65.28-97.706667 65.28-157.44 0-17.493333 14.506667-32 32-32s32 14.506667 32 32c0 77.226667-29.866667 149.333333-84.053333 203.093333z" fill="#B3B3B3" p-id="7636"></path></svg>