<?xml version="1.0" standalone="no"?><!DOCTYPE svg PUBLIC "-//W3C//DTD SVG 1.1//EN" "http://www.w3.org/Graphics/SVG/1.1/DTD/svg11.dtd"><svg t="1729740648116" class="icon" viewBox="0 0 1024 1024" version="1.1" xmlns="http://www.w3.org/2000/svg" p-id="10566" xmlns:xlink="http://www.w3.org/1999/xlink" width="200" height="200"><path d="M574.037333 126.08a40.704 40.704 0 1 0-81.450666 0v61.056a40.746667 40.746667 0 0 0 81.493333 0V126.08zM317.354667 259.754667L274.176 216.533333a40.746667 40.746667 0 1 0-57.6 57.6L259.84 317.354667a40.746667 40.746667 0 0 0 57.6-57.6z m532.736 14.378666a40.704 40.704 0 1 0-57.6-57.6l-43.178667 43.221334a40.746667 40.746667 0 0 0 57.6 57.6l43.178667-43.221334z m-52.053334 259.2a264.704 264.704 0 1 1-529.408 0 264.704 264.704 0 0 1 529.450667 0z m-610.901333-40.746666a40.746667 40.746667 0 0 1 0 81.493333H126.08a40.704 40.704 0 1 1 0-81.493333h61.056zM981.333333 533.333333a40.746667 40.746667 0 0 0-40.704-40.746666h-61.098666a40.746667 40.746667 0 0 0 0 81.493333h61.056A40.746667 40.746667 0 0 0 981.333333 533.333333zM317.354667 806.912a40.746667 40.746667 0 1 0-57.6-57.6l-43.178667 43.178667a40.746667 40.746667 0 0 0 57.6 57.6l43.178667-43.178667z m532.736-14.378667l-43.178667-43.221333a40.746667 40.746667 0 0 0-57.6 57.6l43.178667 43.178667a40.746667 40.746667 0 0 0 57.6-57.6z m-276.053334 86.997334a40.746667 40.746667 0 0 0-81.450666 0v61.056a40.746667 40.746667 0 0 0 81.493333 0v-61.056z" p-id="10567" fill="#f4ea29"></path></svg>