<?xml version="1.0" standalone="no"?><!DOCTYPE svg PUBLIC "-//W3C//DTD SVG 1.1//EN" "http://www.w3.org/Graphics/SVG/1.1/DTD/svg11.dtd"><svg t="1728826993337" class="icon" viewBox="0 0 1024 1024" version="1.1" xmlns="http://www.w3.org/2000/svg" p-id="8740" xmlns:xlink="http://www.w3.org/1999/xlink" width="200" height="200"><path d="M291.5 771.4H875c28.6 0 51.8 23.2 51.8 51.8 0 28.6-23.2 51.8-51.8 51.8H291.5c-23.4 40.6-71.2 60.4-116.5 48.3-45.3-12.1-76.8-53.2-76.8-100 0-46.9 31.5-87.9 76.8-100 45.3-12.3 93.1 7.5 116.5 48.1z m131.4-207.1H150.1c-28.6 0-51.8-23.2-51.8-51.8 0-28.6 23.2-51.8 51.8-51.8h272.8c18.5-32 52.7-51.8 89.7-51.8s71.2 19.7 89.7 51.8h272.8c28.6 0 51.8 23.2 51.8 51.8 0 28.6-23.2 51.8-51.8 51.8H602.3c-18.5 32-52.7 51.8-89.7 51.8s-71.2-19.8-89.7-51.8zM733.6 150c23.4-40.6 71.2-60.4 116.5-48.3 45.3 12.1 76.8 53.2 76.8 100 0 46.9-31.5 87.9-76.8 100-45.3 12.1-93.1-7.7-116.5-48.3H150.1c-28.6 0-51.8-23.2-51.8-51.8 0-28.6 23.2-51.8 51.8-51.8h583.5z m0 0" fill="#B3B3B3" p-id="8741"></path></svg>