<?xml version="1.0" standalone="no"?><!DOCTYPE svg PUBLIC "-//W3C//DTD SVG 1.1//EN" "http://www.w3.org/Graphics/SVG/1.1/DTD/svg11.dtd"><svg t="1729914024907" class="icon" viewBox="0 0 1024 1024" version="1.1" xmlns="http://www.w3.org/2000/svg" p-id="14495" xmlns:xlink="http://www.w3.org/1999/xlink" width="200" height="200"><path d="M512 341.333334C558.933334 341.333334 597.333334 302.933334 597.333334 256 597.333334 209.066666 558.933334 170.666666 512 170.666666 465.066666 170.666666 426.666666 209.066666 426.666666 256 426.666666 302.933334 465.066666 341.333334 512 341.333334L512 341.333334ZM512 426.666666C465.066666 426.666666 426.666666 465.066666 426.666666 512 426.666666 558.933334 465.066666 597.333334 512 597.333334 558.933334 597.333334 597.333334 558.933334 597.333334 512 597.333334 465.066666 558.933334 426.666666 512 426.666666L512 426.666666ZM512 682.666666C465.066666 682.666666 426.666666 721.066666 426.666666 768 426.666666 814.933336 465.066666 853.333336 512 853.333336 558.933334 853.333336 597.333334 814.933336 597.333334 768 597.333334 721.066666 558.933334 682.666666 512 682.666666L512 682.666666Z" fill="#B3B3B3" p-id="14496"></path></svg>