<?xml version="1.0" standalone="no"?><!DOCTYPE svg PUBLIC "-//W3C//DTD SVG 1.1//EN" "http://www.w3.org/Graphics/SVG/1.1/DTD/svg11.dtd"><svg t="1728824914844" class="icon" viewBox="0 0 1024 1024" version="1.1" xmlns="http://www.w3.org/2000/svg" p-id="6311" xmlns:xlink="http://www.w3.org/1999/xlink" width="200" height="200"><path d="M928.073 226.55a27.839 27.839 0 0 0 14.08-41.919 44.158 44.158 0 0 0-18.88-14.08q-111.994-48.957-223.99-95.995L523.294 0h-24l-15.999 7.04C368.42 55.357 254.185 103.035 139.951 152.633l-43.838 18.879a29.119 29.119 0 0 0-19.84 27.198 28.479 28.479 0 0 0 19.2 27.84c1.6 0 4.8 1.92 6.4 2.879 130.233 58.557 260.787 116.794 391.02 175.672a39.678 39.678 0 0 0 38.079 0l333.104-149.113c22.399-9.92 42.878-20.16 63.997-29.439z m-575.972-2.56a107.835 107.835 0 0 1-118.395 0 31.998 31.998 0 0 1 0-55.358 88.956 88.956 0 0 1 50.878-17.6 105.595 105.595 0 0 1 67.517 17.6 31.998 31.998 0 0 1 0 55.357z m218.55 0a106.555 106.555 0 0 1-119.035 0 31.998 31.998 0 0 1 0-54.718 100.795 100.795 0 0 1 63.997-17.6 91.516 91.516 0 0 1 52.157 16.64 31.998 31.998 0 0 1 2.88 55.677z m219.829 0a107.835 107.835 0 0 1-118.395 0 31.998 31.998 0 0 1 0-55.358 89.276 89.276 0 0 1 58.557-18.24 91.836 91.836 0 0 1 58.558 17.6 31.998 31.998 0 0 1 1.28 55.997zM470.495 437.1c-28.799-12.48-57.597-25.28-86.716-39.039-102.715-46.078-203.51-90.236-304.945-135.674a31.998 31.998 0 0 0-29.439-1.92 34.238 34.238 0 0 0-17.28 33.919v495.976a61.757 61.757 0 0 0 39.359 62.077c124.794 55.358 248.628 110.715 372.462 167.032 26.879 11.84 46.398 0 46.398-30.078V475.497a31.998 31.998 0 0 0-21.12-37.758zM285.224 680.286a31.998 31.998 0 0 1-54.398 2.88 95.995 95.995 0 0 1-21.119-75.196 134.394 134.394 0 0 1 14.4-42.878 31.998 31.998 0 0 1 54.077-4.16 91.836 91.836 0 0 1 22.399 59.517 102.075 102.075 0 0 1-15.36 59.837z m660.448-417.9L555.291 437.42a36.478 36.478 0 0 0-23.36 36.478v514.856a29.119 29.119 0 0 0 44.479 29.438L953.672 848.92a59.517 59.517 0 0 0 38.398-56.637V293.746c0-28.799-20.48-42.558-46.398-31.359zM704.084 840.6a31.998 31.998 0 0 1-55.038-2.88 109.115 109.115 0 0 1 7.04-118.074 31.998 31.998 0 0 1 55.037 4.16 103.355 103.355 0 0 1 13.44 55.357 95.995 95.995 0 0 1-20.48 61.437z m170.552-293.106a31.998 31.998 0 0 1-56.638-3.52 109.755 109.755 0 0 1 5.44-115.514 31.998 31.998 0 0 1 58.557 4.8 90.236 90.236 0 0 1 12.48 48.317 104.315 104.315 0 0 1-21.44 65.917z" fill="#B3B3B3" p-id="6312"></path></svg>