<svg xmlns="http://www.w3.org/2000/svg" xmlns:xlink="http://www.w3.org/1999/xlink" width="154.921143" height="154.921143" viewBox="0 0 154.921 154.921"><path d="M20 0L79.5 0C90.54 0 99.5 8.96 99.5 20L99.5 79C99.5 90.04 90.54 99 79.5 99L20 99C8.96 99 0 90.04 0 79L0 20C0 8.96 8.96 0 20 0Z" fill="#FFFFFF" fill-opacity="1.000000" transform="matrix(1 0 0 1 27.7106 27.9606)"/><path d="M20 0L79.5 0C90.54 0 99.5 8.96 99.5 20L99.5 79C99.5 90.04 90.54 99 79.5 99L20 99C8.96 99 0 90.04 0 79L0 20C0 8.96 8.96 0 20 0Z" fill="#FFFFFF" fill-opacity="1.000000" transform="matrix(1 0 0 1 27.7106 27.9606)"/><path d="M5.27734 15.9624Q7.05675 15.9624 8.2633 14.5683L8.42871 14.7114L8.26464 14.8561L7.55029 14.0461L7.71436 13.9014L7.87471 14.0502Q6.74735 15.2651 5.33545 15.2651Q3.75541 15.2651 2.82922 14.0433Q1.92432 12.8496 1.92432 10.8354Q1.92432 8.84819 2.85844 7.65917Q3.80288 6.45703 5.37646 6.45703Q6.66586 6.45703 7.63587 7.5084L7.4751 7.65674L7.30705 7.5167L8.00773 6.67588L8.17578 6.81592L8.01285 6.96188Q6.93596 5.75977 5.36279 5.75977Q3.46719 5.75977 2.2754 7.10899Q1.03223 8.51639 1.03223 10.8765Q1.03223 13.2399 2.25498 14.6343Q3.41967 15.9624 5.27734 15.9624ZM5.27734 16.3999Q3.22143 16.3999 1.92605 14.9227Q0.594727 13.4046 0.594727 10.8765Q0.594727 8.35083 1.9475 6.81935Q3.26989 5.32227 5.36279 5.32227Q7.1314 5.32227 8.33871 6.66996L8.46484 6.81075L7.48346 7.9884L7.31432 7.80507Q6.47424 6.89453 5.37646 6.89453Q4.01553 6.89453 3.20247 7.92945Q2.36182 8.99949 2.36182 10.8354Q2.36182 12.7025 3.17786 13.779Q3.97275 14.8276 5.33545 14.8276Q6.55647 14.8276 7.554 13.7526L7.71848 13.5753L8.71918 14.7101L8.59412 14.8546Q7.25671 16.3999 5.27734 16.3999ZM5.27734 16.1812C2.73096 16.1812 0.813477 14.209 0.813477 10.8765C0.813477 7.55762 2.7583 5.54102 5.36279 5.54102C6.60693 5.54102 7.58789 6.15967 8.17578 6.81592L7.4751 7.65674C6.94531 7.08252 6.2583 6.67578 5.37646 6.67578C3.43164 6.67578 2.14307 8.27197 2.14307 10.8354C2.14307 13.4229 3.37354 15.0464 5.33545 15.0464C6.31299 15.0464 7.05469 14.6123 7.71436 13.9014L8.42871 14.7114C7.61523 15.6514 6.60693 16.1812 5.27734 16.1812ZM13.1737 15.9624Q14.5454 15.9624 15.4778 14.9871Q16.4823 13.9363 16.4823 12.2061Q16.4823 10.465 15.4772 9.40563Q14.5443 8.42236 13.1737 8.42236Q11.803 8.42236 10.8701 9.40563Q9.86507 10.465 9.86507 12.2061Q9.86507 13.9363 10.8696 14.9871Q11.8019 15.9624 13.1737 15.9624ZM13.1737 16.3999Q11.6149 16.3999 10.5533 15.2894Q9.42757 14.1118 9.42757 12.2061Q9.42757 10.2904 10.5528 9.1045Q11.615 7.98487 13.1737 7.98486Q14.7323 7.98486 15.7946 9.1045Q16.9198 10.2904 16.9198 12.2061Q16.9198 14.1118 15.794 15.2894Q14.7324 16.3999 13.1737 16.3999ZM13.1737 15.3369Q12.077 15.3369 11.4068 14.4503Q10.7572 13.5908 10.7572 12.2061Q10.7572 10.8192 11.406 9.94929Q12.0783 9.04785 13.1737 9.04785Q14.2699 9.04785 14.9476 9.94855Q15.6038 10.8206 15.6038 12.2061Q15.6038 13.5894 14.9468 14.451Q14.2712 15.3369 13.1737 15.3369ZM13.1737 14.8994Q14.0546 14.8994 14.5989 14.1857Q15.1663 13.4416 15.1663 12.2061Q15.1663 10.9668 14.5981 10.2116Q14.0516 9.48535 13.1737 9.48535Q12.2978 9.48535 11.7567 10.2109Q11.1947 10.9644 11.1947 12.2061Q11.1947 13.444 11.7558 14.1865Q12.2947 14.8994 13.1737 14.8994ZM13.1737 15.1182C14.4896 15.1182 15.3851 13.9561 15.3851 12.2061C15.3851 10.4561 14.4896 9.2666 13.1737 9.2666C11.8577 9.2666 10.9759 10.4561 10.9759 12.2061C10.9759 13.9561 11.8577 15.1182 13.1737 15.1182ZM13.1737 16.1812C11.3109 16.1812 9.64632 14.7251 9.64632 12.2061C9.64632 9.67334 11.3109 8.20361 13.1737 8.20361C15.0365 8.20361 16.701 9.67334 16.701 12.2061C16.701 14.7251 15.0365 16.1812 13.1737 16.1812ZM20.0478 15.9624Q20.463 15.9624 20.7089 15.865L20.7895 16.0684L20.5744 16.1082L20.3932 15.1307L20.6083 15.0908L20.6502 15.3055Q20.4893 15.3369 20.3417 15.3369Q19.7607 15.3369 19.7607 14.5713L19.7607 4.85742L19.9794 4.85742L19.9794 5.07617L18.7045 5.07617L18.7045 4.85742L18.9232 4.85742L18.9232 14.4893Q18.9232 15.9624 20.0478 15.9624ZM20.0478 16.3999Q18.4857 16.3999 18.4857 14.4893L18.4857 4.63867L20.1982 4.63867L20.1982 14.5713Q20.1982 14.8994 20.3417 14.8994Q20.447 14.8994 20.5664 14.8761L20.7832 14.8338L21.0373 16.2054L20.87 16.2717Q20.5465 16.3999 20.0478 16.3999ZM20.0478 16.1812C19.0976 16.1812 18.7045 15.5659 18.7045 14.4893L18.7045 4.85742L19.9794 4.85742L19.9794 14.5713C19.9794 14.9644 20.1469 15.1182 20.3417 15.1182C20.4135 15.1182 20.4682 15.1182 20.6083 15.0908L20.7895 16.0684C20.6083 16.1401 20.3827 16.1812 20.0478 16.1812ZM25.6476 15.9624Q27.0194 15.9624 27.9517 14.9871Q28.9562 13.9363 28.9562 12.2061Q28.9562 10.465 27.9511 9.40563Q27.0182 8.42236 25.6476 8.42236Q24.277 8.42236 23.3441 9.40563Q22.339 10.465 22.339 12.2061Q22.339 13.9363 23.3435 14.9871Q24.2759 15.9624 25.6476 15.9624ZM25.6476 16.3999Q24.0889 16.3999 23.0273 15.2894Q21.9015 14.1118 21.9015 12.2061Q21.9015 10.2904 23.0267 9.1045Q24.089 7.98487 25.6476 7.98486Q27.2062 7.98486 28.2685 9.1045Q29.3937 10.2904 29.3937 12.2061Q29.3937 14.1118 28.268 15.2894Q27.2064 16.3999 25.6476 16.3999ZM25.6476 15.3369Q24.551 15.3369 23.8808 14.4503Q23.2311 13.5908 23.2311 12.2061Q23.2311 10.8192 23.8799 9.94929Q24.5523 9.04785 25.6476 9.04785Q26.7438 9.04785 27.4216 9.94855Q28.0778 10.8206 28.0778 12.2061Q28.0778 13.5894 27.4207 14.451Q26.7452 15.3369 25.6476 15.3369ZM25.6476 14.8994Q26.5286 14.8994 27.0729 14.1857Q27.6403 13.4416 27.6403 12.2061Q27.6403 10.9668 27.072 10.2116Q26.5255 9.48535 25.6476 9.48535Q24.7717 9.48535 24.2306 10.2109Q23.6686 10.9644 23.6686 12.2061Q23.6686 13.444 24.2298 14.1865Q24.7687 14.8994 25.6476 14.8994ZM25.6476 15.1182C26.9635 15.1182 27.859 13.9561 27.859 12.2061C27.859 10.4561 26.9635 9.2666 25.6476 9.2666C24.3317 9.2666 23.4499 10.4561 23.4499 12.2061C23.4499 13.9561 24.3317 15.1182 25.6476 15.1182ZM25.6476 16.1812C23.7848 16.1812 22.1203 14.7251 22.1203 12.2061C22.1203 9.67334 23.7848 8.20361 25.6476 8.20361C27.5104 8.20361 29.175 9.67334 29.175 12.2061C29.175 14.7251 27.5104 16.1812 25.6476 16.1812ZM31.1785 15.7812L32.4534 15.7812L32.4534 16L32.2346 16L32.2346 11.0715L32.2493 11.0334Q32.9804 9.14355 34.3708 9.14355Q34.8183 9.14356 35.1899 9.28418L35.1125 9.48877L34.8985 9.44361L35.1343 8.32593L35.3484 8.37109L35.245 8.56388Q34.9811 8.42236 34.5383 8.42236Q33.3841 8.42236 32.573 9.8886L32.5106 10.0015L32.1389 10.0015L32.0097 8.4162L32.2278 8.39844L32.2278 8.61719L31.1785 8.61719L31.1785 8.39844L31.3972 8.39844L31.3972 16L31.1785 16L31.1785 15.7812ZM30.9597 16.2188L30.9597 8.17969L32.4294 8.17969L32.5586 9.76495L32.3406 9.78271L32.3406 9.56396L32.3816 9.56396L32.3816 9.78271L32.1902 9.67683Q33.1261 7.98486 34.5383 7.98486Q35.091 7.98486 35.4517 8.17831L35.5963 8.25581L35.2739 9.7837L35.0351 9.69336Q34.7383 9.58105 34.3708 9.58105Q33.2803 9.58105 32.6574 11.1912L32.4534 11.1123L32.6721 11.1123L32.6721 16.2188L31.1785 16.2188L30.9597 16.2188ZM31.1785 16L31.1785 8.39844L32.2278 8.39844L32.3406 9.78271L32.3816 9.78271C32.9148 8.81885 33.6838 8.20361 34.5383 8.20361C34.8733 8.20361 35.1125 8.24463 35.3484 8.37109L35.1125 9.48877C34.8596 9.39307 34.6785 9.3623 34.3708 9.3623C33.7385 9.3623 32.9558 9.81348 32.4534 11.1123L32.4534 16L31.1785 16Z" fill="#C7C7C7" fill-opacity="1.000000" transform="matrix(1 0 0 1 59.4496 94.0552)"/></svg>