<?xml version="1.0" standalone="no"?><!DOCTYPE svg PUBLIC "-//W3C//DTD SVG 1.1//EN" "http://www.w3.org/Graphics/SVG/1.1/DTD/svg11.dtd"><svg t="1728825151780" class="icon" viewBox="0 0 1024 1024" version="1.1" xmlns="http://www.w3.org/2000/svg" p-id="16524" xmlns:xlink="http://www.w3.org/1999/xlink" width="200" height="200"><path d="M146.285714 146.285714m109.714286 0l109.714286 0q109.714286 0 109.714285 109.714286l0 109.714286q0 109.714286-109.714285 109.714285l-109.714286 0q-109.714286 0-109.714286-109.714285l0-109.714286q0-109.714286 109.714286-109.714286Z" fill="#B3B3B3" p-id="16525"></path><path d="M146.285714 548.571429m109.714286 0l109.714286 0q109.714286 0 109.714285 109.714285l0 109.714286q0 109.714286-109.714285 109.714286l-109.714286 0q-109.714286 0-109.714286-109.714286l0-109.714286q0-109.714286 109.714286-109.714285Z" fill="#B3B3B3" p-id="16526"></path><path d="M713.142857 78.117997m77.579716 77.579715l77.579715 77.579715q77.579715 77.579715 0 155.159431l-77.579715 77.579716q-77.579715 77.579715-155.159431 0l-77.579716-77.579716q-77.579715-77.579715 0-155.159431l77.579716-77.579715q77.579715-77.579715 155.159431 0Z" fill="#B3B3B3" p-id="16527"></path><path d="M548.571429 548.571429m109.714285 0l109.714286 0q109.714286 0 109.714286 109.714285l0 109.714286q0 109.714286-109.714286 109.714286l-109.714286 0q-109.714286 0-109.714285-109.714286l0-109.714286q0-109.714286 109.714285-109.714285Z" fill="#B3B3B3" p-id="16528"></path></svg>